<?xml version="1.0" standalone="no"?>
<!DOCTYPE svg PUBLIC "-//W3C//DTD SVG 20010904//EN"
 "http://www.w3.org/TR/2001/REC-SVG-20010904/DTD/svg10.dtd">
<svg version="1.0" xmlns="http://www.w3.org/2000/svg"
 width="667.000000pt" height="147.000000pt" viewBox="0 0 667.000000 147.000000"
 preserveAspectRatio="xMidYMid meet">

<g transform="translate(0.000000,147.000000) scale(0.100000,-0.100000)"
fill="#000000" stroke="none">
<path d="M214 1069 c32 -5 62 -11 65 -15 9 -8 7 -584 -1 -615 -6 -20 -17 -28
-50 -36 -34 -8 -3 -10 147 -10 105 0 172 2 150 5 -32 3 -36 6 -20 12 14 6 6 9
-30 9 -29 1 -60 8 -73 17 -21 14 -22 22 -22 160 l0 144 63 1 c34 0 71 4 82 9
l20 9 -20 1 c-11 1 -47 2 -80 3 l-60 2 0 137 c0 75 3 140 7 144 5 4 38 13 75
20 64 11 58 12 -122 12 -146 0 -176 -2 -131 -9z m124 -332 c2 -322 2 -327 -18
-327 -20 0 -20 6 -20 323 0 178 3 327 7 331 24 24 28 -16 31 -327z"/>
<path d="M825 1073 c99 -12 95 -9 97 -66 l1 -52 6 55 c4 40 10 55 21 55 13 0
15 -44 18 -327 2 -323 2 -328 -18 -328 -18 0 -20 7 -22 73 l-2 72 -3 -65 c-5
-73 -8 -79 -55 -90 -21 -5 17 -8 107 -8 109 0 131 2 99 9 -52 12 -54 17 -54
182 l0 127 48 0 c59 0 81 -15 132 -91 23 -32 43 -59 46 -59 7 0 -72 114 -90
129 -21 18 -20 32 2 24 32 -11 74 -58 144 -161 39 -57 82 -110 94 -119 13 -8
24 -19 24 -24 0 -16 -55 12 -94 49 l-39 37 23 -34 c27 -39 90 -70 143 -71 l38
0 -36 31 c-20 18 -72 85 -117 150 -44 65 -94 127 -110 137 l-29 19 39 15 c121
47 130 207 17 294 -18 14 -50 27 -72 30 l-38 5 43 -22 c73 -37 113 -120 98
-203 -8 -41 -64 -106 -92 -106 -16 0 -16 2 4 16 71 50 70 189 -3 254 -26 22
-25 20 5 -18 29 -36 35 -52 38 -105 6 -105 -48 -157 -162 -157 l-56 0 -2 83
c0 45 -1 89 0 97 0 8 2 43 3 78 l2 62 36 10 c20 5 47 11 61 14 14 2 -54 3
-150 3 -96 0 -161 -2 -145 -4z"/>
<path d="M1596 1068 l61 -9 7 -61 c8 -78 8 -399 0 -504 l-7 -82 -41 -10 c-33
-8 -15 -10 99 -10 110 0 131 2 98 9 l-41 10 -7 83 c-8 95 -3 551 6 560 3 4 33
10 65 15 46 7 18 9 -121 9 -149 -1 -170 -2 -119 -10z m124 -333 c0 -318 0
-325 -20 -325 -20 0 -20 7 -20 325 0 318 0 325 20 325 20 0 20 -7 20 -325z"/>
<path d="M1967 1068 l61 -10 8 -76 c10 -107 -1 -551 -14 -564 -6 -6 -25 -14
-44 -18 -19 -5 74 -8 224 -9 l257 -1 6 48 c3 26 9 59 11 75 9 44 -3 31 -21
-23 -9 -28 -26 -55 -37 -61 -27 -15 -235 -7 -265 10 -23 12 -23 13 -23 255 0
134 3 270 6 304 l7 61 61 9 c51 8 30 9 -119 9 -150 0 -170 -1 -118 -9z m121
-335 c-3 -303 -4 -328 -20 -331 -17 -3 -18 18 -18 327 0 325 0 331 20 331 20
0 20 -5 18 -327z"/>
<path d="M2549 1069 c24 -5 47 -11 50 -15 3 -3 9 -38 12 -77 l6 -72 1 78 c2
70 4 77 22 77 20 0 20 -7 20 -325 0 -318 0 -325 -20 -325 -19 0 -20 7 -22 108
-1 66 -3 82 -5 42 -6 -132 -11 -149 -46 -159 -23 -7 4 -9 103 -9 105 0 126 2
95 9 -22 5 -43 13 -47 17 -6 6 -12 203 -9 285 1 16 19 17 225 17 170 0 225 -3
229 -12 2 -7 5 69 5 170 0 101 3 186 6 189 3 3 12 3 21 0 13 -6 15 -48 15
-332 l0 -325 -23 0 c-21 0 -23 3 -20 61 3 73 -9 70 -17 -4 -5 -52 -5 -52 -50
-64 -40 -10 -31 -11 95 -11 89 0 128 3 107 8 -18 4 -36 11 -40 15 -9 9 -9 631
0 640 3 3 28 10 55 15 34 5 -4 8 -127 8 -137 -1 -161 -2 -111 -9 35 -4 66 -10
68 -13 3 -3 8 -72 11 -155 l5 -149 -44 -7 c-57 -8 -395 -2 -405 7 -9 10 -5
291 5 301 4 4 34 11 67 16 47 7 24 9 -111 9 -122 0 -158 -3 -126 -9z"/>
<path d="M3621 791 c-142 -360 -148 -373 -192 -388 -30 -11 -24 -12 66 -11 87
0 95 1 58 10 -25 5 -43 15 -43 23 0 7 14 52 31 99 l32 86 153 0 c111 0 154 -3
154 -12 0 -6 3 -9 6 -6 3 4 -1 19 -10 35 -8 15 -15 22 -16 16 0 -17 -270 -19
-270 -2 0 17 123 309 130 309 3 0 19 -27 35 -60 39 -81 43 -70 5 14 -30 68
-38 110 -21 120 7 5 261 -585 261 -607 0 -13 -40 -7 -40 6 0 6 -9 30 -20 52
-11 22 -18 32 -16 23 3 -9 8 -32 11 -52 7 -34 6 -35 -37 -44 -35 -8 -19 -10
92 -10 100 0 127 2 102 9 -36 11 -56 45 -132 224 -23 55 -50 118 -60 140 -9
22 -44 102 -76 178 -39 90 -64 137 -74 137 -10 -1 -51 -91 -129 -289z"/>
<path d="M4190 1068 c48 -14 76 -28 100 -50 20 -19 21 -28 18 -308 -2 -159 -6
-292 -11 -296 -4 -4 -26 -11 -50 -15 -27 -4 0 -7 78 -7 95 0 110 2 72 8 -27 5
-51 11 -54 13 -6 7 -5 549 2 555 3 3 29 -16 58 -44 l52 -49 -45 50 c-25 28
-63 69 -85 93 -38 41 -39 42 -14 42 21 0 69 -49 253 -253 151 -168 233 -253
246 -253 11 0 20 4 20 9 0 5 -78 95 -173 200 -95 106 -195 220 -222 254 l-50
63 -115 -1 c-94 -1 -109 -3 -80 -11z"/>
<path d="M4760 1070 c14 -4 39 -8 57 -9 31 -1 31 -2 38 -63 3 -35 5 -157 3
-273 -2 -173 -5 -209 -17 -207 -11 2 -10 -3 3 -23 10 -14 16 -35 14 -47 -2
-16 -33 14 -139 133 -75 85 -164 183 -198 219 -35 36 11 -18 101 -120 90 -102
185 -211 211 -243 l47 -59 1 264 c1 144 4 297 8 338 l6 75 60 11 c57 11 54 11
-80 12 -84 0 -130 -3 -115 -8z"/>
<path d="M5041 1028 l1 -53 12 40 12 40 86 3 c48 1 102 -1 120 -6 32 -8 33
-10 39 -73 l6 -64 1 73 c2 65 4 72 22 72 20 0 20 -7 20 -325 0 -318 0 -325
-20 -325 -18 0 -20 7 -22 88 l-1 87 -6 -82 c-4 -45 -9 -84 -12 -87 -3 -3 -23
-10 -45 -15 -30 -7 -4 -9 106 -9 114 0 136 2 103 10 -40 9 -42 11 -49 56 -13
82 -9 571 5 585 8 8 49 12 124 12 l111 0 12 -40 12 -40 1 53 1 52 -320 0 -320
0 1 -52z"/>
<path d="M5779 1069 c24 -5 47 -11 50 -15 9 -8 7 -631 -1 -640 -4 -4 -25 -10
-45 -14 -21 -4 66 -8 195 -9 127 0 232 0 232 2 1 1 3 29 5 62 l5 60 -17 -48
-17 -49 -117 4 c-65 2 -121 7 -126 11 -4 5 -8 75 -8 155 l0 147 105 0 104 0
12 -40 c12 -38 12 -35 12 55 0 90 0 93 -12 55 l-12 -40 -108 -3 -109 -3 5 137
c4 100 9 139 19 145 8 5 63 8 124 7 l109 -3 11 -37 c15 -56 20 -52 17 13 l-4
59 -236 -1 c-163 -1 -223 -4 -193 -10z m109 -336 c-3 -284 -5 -328 -18 -328
-13 0 -15 44 -18 328 -2 323 -2 327 18 327 20 0 20 -4 18 -327z"/>
<path d="M578 1050 c88 -54 99 -186 20 -256 -12 -12 -30 -24 -38 -27 -13 -5
-13 -5 0 -6 24 -1 91 41 114 72 28 37 26 123 -3 170 -21 35 -73 67 -108 67
-13 0 -9 -6 15 -20z"/>
<path d="M488 1053 c7 -3 16 -2 19 1 4 3 -2 6 -13 5 -11 0 -14 -3 -6 -6z"/>
<path d="M1130 1046 c0 -2 7 -7 16 -10 8 -3 12 -2 9 4 -6 10 -25 14 -25 6z"/>
<path d="M570 1015 c7 -8 18 -32 26 -52 8 -23 13 -30 14 -18 0 21 -35 85 -46
85 -4 0 -1 -7 6 -15z"/>
<path d="M605 893 c-3 -16 -15 -45 -26 -67 -12 -21 -16 -35 -10 -32 22 14 63
126 46 126 -3 0 -7 -12 -10 -27z"/>
<path d="M3791 815 c0 -5 6 -21 14 -35 8 -14 14 -20 14 -15 0 6 -6 21 -14 35
-8 14 -14 21 -14 15z"/>
<path d="M3820 745 c0 -5 5 -17 10 -25 5 -8 10 -10 10 -5 0 6 -5 17 -10 25 -5
8 -10 11 -10 5z"/>
<path d="M632 716 c51 -36 72 -79 72 -147 1 -68 -29 -119 -89 -150 l-40 -21
34 6 c113 20 174 143 122 244 -20 38 -67 75 -111 87 -20 5 -18 2 12 -19z"/>
<path d="M550 726 c0 -2 7 -7 16 -10 8 -3 12 -2 9 4 -6 10 -25 14 -25 6z"/>
<path d="M610 685 c13 -14 26 -25 28 -25 3 0 -5 11 -18 25 -13 14 -26 25 -28
25 -3 0 5 -11 18 -25z"/>
<path d="M3840 695 c0 -5 5 -17 10 -25 5 -8 10 -10 10 -5 0 6 -5 17 -10 25 -5
8 -10 11 -10 5z"/>
<path d="M3163 620 c0 -41 2 -58 4 -37 2 20 2 54 0 75 -2 20 -4 3 -4 -38z"/>
<path d="M641 645 c1 -19 18 -51 18 -35 0 8 -4 22 -9 30 -5 8 -9 11 -9 5z"/>
<path d="M656 555 c-4 -22 -16 -56 -27 -75 l-19 -35 20 23 c21 25 44 95 37
115 -2 7 -7 -6 -11 -28z"/>
</g>
</svg>
